<?xml version="1.0" encoding="iso-8859-1"?>
<!-- Generator: Adobe Illustrator 16.0.0, SVG Export Plug-In . SVG Version: 6.00 Build 0)  -->
<!DOCTYPE svg PUBLIC "-//W3C//DTD SVG 1.1//EN" "http://www.w3.org/Graphics/SVG/1.1/DTD/svg11.dtd">
<svg version="1.1" id="Capa_1" xmlns="http://www.w3.org/2000/svg" xmlns:xlink="http://www.w3.org/1999/xlink" x="0px" y="0px"
	 width="578.924px" height="578.924px" viewBox="0 0 578.924 578.924" style="enable-background:new 0 0 578.924 578.924;"
	 xml:space="preserve">
<g>
	<g>
		<path d="M198.689,290.949c-1.167,0-2.553-0.344-4.045-0.976l-88.864-37.915c-4.6-1.951-8.664-2.955-12.125-2.955
			c-5.852,0-8.645,2.917-9.792,4.657c-0.679,1.033-1.415,2.831-1.492,5.202C35.964,265.035,0,304.728,0,352.751
			c0,52.221,42.477,94.688,94.688,94.688c37.399,0,69.71-21.859,85.077-53.416c5.757,2.524,11.8,4.064,17.337,4.064H365.02
			c12.346,0,23.678-8.157,28.229-19.402c11.312,39.627,47.773,68.754,90.986,68.754c52.213,0,94.689-42.477,94.689-94.688
			c0-39.254-24.031-73.01-58.141-87.334c2.361-4.036,3.758-8.367,3.758-12.575c0-10.155-5.729-26.077-13.033-36.232l-36.902-51.245
			c-7.381-10.261-22.738-20.866-34.951-24.136l-29.92-8.023c-4.189-1.128-8.568-1.721-12.633-1.721
			c-9.4,0-16.074,2.983-18.771,8.376c-4.58,9.17,4.398,20.779,15.635,27.521l15.816,9.496c3.156,1.893,4.285,3.863,4.303,5.078
			c0.01,1.233-1.117,2.668-3.107,3.93c-2.438,1.54-4.465,2.419-5.977,2.831c-2.104-8.979-13.99-14.765-25.742-15.979l-106-10.968
			c-13.703-1.435-29.816,6.837-36.72,18.599l-8.147,13.923c-4.399,7.488-15.874,14.057-24.547,14.057h-26.88
			c-8.558,0-19.498-6.665-23.438-14.268l-6.665-12.89c-6.245-12.078-21.774-21.535-35.372-21.535H39.273
			c-3.366,0-13.636,0-15.529,7.832c-1.894,7.832,7.239,12.518,10.232,14.066l152.216,78.145c7.774,3.997,15.233,15.147,15.94,23.858
			l0.077,0.976c0.201,2.524-0.201,4.562-1.147,5.575C200.87,290.308,200.287,290.949,198.689,290.949z"/>
	</g>
</g>
<g>
</g>
<g>
</g>
<g>
</g>
<g>
</g>
<g>
</g>
<g>
</g>
<g>
</g>
<g>
</g>
<g>
</g>
<g>
</g>
<g>
</g>
<g>
</g>
<g>
</g>
<g>
</g>
<g>
</g>
</svg>
