<?xml version="1.0" encoding="iso-8859-1"?>
<!-- Generator: Adobe Illustrator 16.0.0, SVG Export Plug-In . SVG Version: 6.00 Build 0)  -->
<!DOCTYPE svg PUBLIC "-//W3C//DTD SVG 1.1//EN" "http://www.w3.org/Graphics/SVG/1.1/DTD/svg11.dtd">
<svg version="1.1" id="Capa_1" xmlns="http://www.w3.org/2000/svg" xmlns:xlink="http://www.w3.org/1999/xlink" x="0px" y="0px"
	 width="578.924px" height="578.923px" viewBox="0 0 578.924 578.923" style="enable-background:new 0 0 578.924 578.923;"
	 xml:space="preserve">
<g>
	<g>
		<path d="M94.688,546.153c37.399,0,69.71-21.859,85.077-53.416c5.757,2.524,11.8,4.064,17.337,4.064H365.02
			c12.346,0,23.678-8.157,28.229-19.402c11.312,39.627,47.773,68.754,90.986,68.754c52.213,0,94.689-42.477,94.689-94.688
			c0-39.254-24.031-73.01-58.141-87.335c2.361-4.035,3.758-8.367,3.758-12.574c0-10.155-5.729-26.077-13.033-36.232l-36.902-51.246
			c-7.381-10.26-22.738-20.865-34.951-24.136l-29.92-8.023c-4.189-1.128-8.568-1.721-12.633-1.721c-2.16,0-4.141,0.201-5.996,0.507
			c-2.83-3.06-6.617-5.278-11.062-5.967l-77.926-11.953l-29.347-58.791c-0.067-0.134-0.162-0.229-0.229-0.363
			c-0.985-4.571-4.829-8.472-9.495-9.018l-52.948-6.282c-5.24-0.622-10.538,3.031-11.838,8.157l-38.891,153.067
			c-0.01,0.058,0,0.114-0.01,0.172c-2.458-2.084-4.542-4.446-5.833-6.933l-6.665-12.89c-6.245-12.078-21.774-21.535-35.372-21.535
			H39.273c-3.366,0-13.636,0-15.529,7.832c-1.894,7.832,7.239,12.517,10.232,14.066l152.216,78.135
			c6.56,3.366,12.833,11.81,15.08,19.594l-4.8,11.121c-0.622-0.163-1.157-0.153-1.827-0.44l-88.864-37.915
			c-4.6-1.95-8.664-2.955-12.125-2.955c-5.852,0-8.645,2.917-9.792,4.657c-0.679,1.033-1.415,2.831-1.492,5.202
			C35.964,363.739,0,403.432,0,451.456C0,503.676,42.477,546.153,94.688,546.153z M272.388,238.795
			c2.783,5.527,8.071,9.362,14.171,10.299l87.669,13.445c0.984,0.153,1.961,0.22,2.936,0.22c3.27,0,6.389-0.88,9.143-2.391
			c2.312,2.123,4.914,4.074,7.658,5.718l15.816,9.496c3.156,1.893,4.285,3.863,4.303,5.078c0.01,1.233-1.117,2.668-3.107,3.93
			c-2.438,1.54-4.465,2.419-5.977,2.831c-2.104-8.979-13.99-14.765-25.742-15.979l-106-10.968
			c-10.404-1.09-22.175,3.433-30.275,10.815l15.501-60.081L272.388,238.795z"/>
		<circle cx="248.577" cy="76.969" r="44.198"/>
	</g>
</g>
<g>
</g>
<g>
</g>
<g>
</g>
<g>
</g>
<g>
</g>
<g>
</g>
<g>
</g>
<g>
</g>
<g>
</g>
<g>
</g>
<g>
</g>
<g>
</g>
<g>
</g>
<g>
</g>
<g>
</g>
</svg>
