<?xml version="1.0" encoding="iso-8859-1"?>
<!-- Generator: Adobe Illustrator 19.0.0, SVG Export Plug-In . SVG Version: 6.00 Build 0)  -->
<svg version="1.1" id="Layer_1" xmlns="http://www.w3.org/2000/svg" xmlns:xlink="http://www.w3.org/1999/xlink" x="0px" y="0px"
	 viewBox="0 0 511.991 511.991" style="enable-background:new 0 0 511.991 511.991;" xml:space="preserve">
<g>
	<g>
		<path d="M437.335,260.92c-9.219,0-18.016,1.68-26.155,4.734l-2.656-4.844c14.249-6.945,31.03-10.492,50.171-10.555
			c4.734-0.016,8.891-3.156,10.203-7.711c0.25-0.852,6.016-21.335,0.188-48.757c-5.281-24.953-21.516-60.889-68.78-90.42
			c-4.141-2.594-9.516-2.031-13.031,1.352l-21.343,20.515c-3.359,3.234-4.234,8.281-2.156,12.46l10.812,21.625
			c-19.203-4.484-47.375-9.812-72.812-9.812c-15.968,0-29.187,2.156-39.265,6.406c-19.352,8.171-37.07,37.226-44.546,50.874
			L53.843,187.156c-4.461-0.531-8.773,1.781-10.797,5.796c-1.242,2.461-2.359,6.477-0.641,11.602
			c2.82,8.429,13.586,21.476,71.983,54.343c15.875,8.93,31.625,17.258,43.32,23.289l-21.726,10.843
			c-13.5-19.39-35.945-32.108-61.319-32.108C33.492,260.921,0,294.404,0,335.591c0,41.156,33.492,74.655,74.663,74.655
			c34.335,0,63.327-23.28,72.014-54.905l8.367,1.031l18.742,18.75c2,2,4.719,3.125,7.547,3.125h160.004
			c2.875,0,5.625-1.156,7.625-3.219c2-2.047,3.094-4.828,3.031-7.703c-0.016-0.547-0.969-54.797,32.375-89.076
			c1.984-2.031,4.062-3.969,6.218-5.781l1.891,3.469c-18.093,13.624-29.827,35.296-29.827,59.654
			c0,41.156,33.499,74.655,74.686,74.655c41.156,0,74.655-33.499,74.655-74.655C511.99,294.403,478.491,260.92,437.335,260.92z
			 M74.662,388.917c-29.406,0-53.327-23.921-53.327-53.327c0-29.405,23.921-53.342,53.327-53.342
			c17.015,0,32.179,8.03,41.952,20.468l-14.734,7.344c-6.82-7.25-16.492-11.812-27.218-11.812
			c-20.585,0-37.327,16.749-37.327,37.343c0,20.578,16.742,37.328,37.327,37.328c15.25,0,28.375-9.188,34.171-22.312l16.351,2.047
			C118.044,373.715,98.107,388.917,74.662,388.917z M64.155,337.387c0.789,4.641,4.523,8.203,9.188,8.781l11.82,1.484
			c-2.812,2.438-6.484,3.938-10.5,3.938c-8.82,0-16-7.188-16-16c0-8.828,7.179-16,16-16c2.086,0,4.07,0.406,5.898,1.125
			l-10.664,5.328C65.694,328.152,63.358,332.746,64.155,337.387z M111.482,329.433c-0.016-0.094-0.031-0.188-0.055-0.281
			l10.921-5.469l5.219,5.219c0.102,0.844,0.188,1.719,0.258,2.578L111.482,329.433z M446.679,330.465l-5.719-10.469
			c7.062,1.656,12.375,8.016,12.375,15.594c0,8.812-7.188,16-16,16c-8.844,0-16-7.188-16-16c0-1.875,0.312-3.657,0.906-5.344
			l5.719,10.469c1.938,3.531,5.594,5.531,9.375,5.531c1.734,0,3.484-0.406,5.125-1.312
			C447.616,342.122,449.507,335.622,446.679,330.465z M270.807,175.57c7.438-3.133,17.843-4.727,30.968-4.727
			c21.03,0,44.733,4.125,62.499,8.047c-24.844,10.742-67.28,25.062-121.756,28.117C250.909,193.53,261.87,179.343,270.807,175.57z
			 M126.255,241.092c-23.64-13.25-38.531-22.804-47.913-29.522l133.787,16.007c-2.391,11.195-9.539,30.07-30.898,42.656
			C171.598,265.389,149.184,253.951,126.255,241.092z M185.746,356.918l-18.211-18.203l-20.171-20.188
			c-0.516-2.172-1.125-4.312-1.82-6.421l4.781-2.39l47.194,47.202H185.746z M331.024,356.918H227.691l-57.249-57.249l15.758-7.875
			c34.929-17.452,44.687-47.233,47.413-63.053c50.742-1.562,91.974-12.672,118.224-22.023c30.438-10.852,47.78-21.64,48.499-22.093
			v-0.008c0.906-0.578,1.75-1.297,2.469-2.156c2.75-3.25,3.297-7.828,1.406-11.641l-17.843-35.647l9.562-9.18
			c28.358,19.5,45.874,43.413,52.062,71.186c3.016,13.484,2.562,24.953,1.719,32c-3.531,0.195-7,0.5-10.406,0.914l-39.687-21.039
			c-3.031-1.609-6.625-1.656-9.703-0.141l-86.107,42.437c-3.156,1.562-5.344,4.57-5.844,8.055c-0.5,3.477,0.75,6.984,3.344,9.367
			l40.843,37.601C334.399,326.371,331.837,345.433,331.024,356.918z M369.071,263.373c-6.938,7.133-12.609,14.906-17.266,22.875
			l-24.625-22.641l67.28-33.148l13.641,7.234C393.148,243.451,380.118,252.021,369.071,263.373z M437.335,388.917
			c-29.421,0-53.342-23.921-53.342-53.327c0-16.281,7.343-30.874,18.89-40.687l7.906,14.453
			c-6.672,6.733-10.797,16.015-10.797,26.233c0,20.578,16.749,37.328,37.343,37.328c20.578,0,37.312-16.75,37.312-37.328
			c0-20.594-16.734-37.343-37.312-37.343c-2.688,0-5.312,0.297-7.844,0.844l-7.922-14.468c4.984-1.531,10.266-2.375,15.766-2.375
			c29.406,0,53.312,23.937,53.312,53.342C490.646,364.996,466.741,388.917,437.335,388.917z"/>
	</g>
</g>
<g>
	<g>
		<path d="M245.331,271.584c-17.648,0-32,14.352-32,32.007c0,17.64,14.352,31.999,32,31.999c17.641,0,32.008-14.36,32.008-31.999
			C277.339,285.936,262.972,271.584,245.331,271.584z M245.331,314.246c-5.883,0-10.671-4.78-10.671-10.655
			s4.789-10.672,10.671-10.672c5.875,0,10.664,4.797,10.664,10.672S251.206,314.246,245.331,314.246z"/>
	</g>
</g>
<g>
	<g>
		<path d="M284.87,328.043c-4.156-4.172-10.922-4.172-15.086,0s-4.164,10.922,0,15.078c4.164,4.172,10.93,4.172,15.086,0
			C289.025,338.965,289.025,332.215,284.87,328.043z"/>
	</g>
</g>
<g>
</g>
<g>
</g>
<g>
</g>
<g>
</g>
<g>
</g>
<g>
</g>
<g>
</g>
<g>
</g>
<g>
</g>
<g>
</g>
<g>
</g>
<g>
</g>
<g>
</g>
<g>
</g>
<g>
</g>
</svg>
